<svg width="20" height="20" viewBox="0 0 20 20" fill="none" xmlns="http://www.w3.org/2000/svg">
<path d="M9.16669 3.33344H3.33335C2.89133 3.33344 2.4674 3.50904 2.15484 3.8216C1.84228 4.13416 1.66669 4.55808 1.66669 5.00011V16.6668C1.66669 17.1088 1.84228 17.5327 2.15484 17.8453C2.4674 18.1578 2.89133 18.3334 3.33335 18.3334H15C15.442 18.3334 15.866 18.1578 16.1785 17.8453C16.4911 17.5327 16.6667 17.1088 16.6667 16.6668V10.8334M15.4167 2.08344C15.7482 1.75192 16.1978 1.56567 16.6667 1.56567C17.1355 1.56567 17.5852 1.75192 17.9167 2.08344C18.2482 2.41496 18.4345 2.8646 18.4345 3.33344C18.4345 3.80228 18.2482 4.25192 17.9167 4.58344L10 12.5001L6.66669 13.3334L7.50002 10.0001L15.4167 2.08344Z" stroke="#1E1E1E" stroke-width="1.66667" stroke-linecap="round" stroke-linejoin="round"/>
</svg>
